<?xml version="1.0" encoding="UTF-8"?>
<svg width="141px" height="110px" viewBox="0 0 141 110" version="1.1" xmlns="http://www.w3.org/2000/svg" xmlns:xlink="http://www.w3.org/1999/xlink">
    <!-- Generator: Sketch 49 (51002) - http://www.bohemiancoding.com/sketch -->
    <title>Логотип</title>
    <desc>Created with Sketch.</desc>
    <defs>
        <path d="M29.1196269,1.73619403 C16.1223881,10.2652985 29.4520896,28.5983582 39.9488806,32.2587313 C39.9488806,32.2587313 39.1296269,31.8228358 37.7899254,30.8188806 C36.4387313,29.8354478 34.6598507,28.1386567 32.7709701,25.7744776 C30.9108209,23.4127612 28.9874627,20.1956716 27.8956716,16.491791 C27.3998507,14.6488806 27.1264925,12.6869403 27.4408955,10.9647015 C27.7815672,9.24656716 28.5244776,7.92820896 29.8633582,6.84544776 C30.3714925,6.43335821 30.918209,6.0869403 31.0947015,5.99335821 C31.1726866,5.95231343 31.8269403,5.60589552 32.1265672,5.52462687 C32.693806,5.37029851 33.3045522,5.32679104 34.1164179,5.42776119 C34.5219403,5.47865672 34.8585075,5.54597015 35.2894776,5.66171642 C35.4979851,5.7208209 35.7286567,5.77664179 35.9347015,5.84641791 C36.126791,5.91126866 36.3656716,6.02701493 36.3656716,6.02701493 L36.6431343,6.15589552 C37.4246269,6.52365672 38.2126866,7.06216418 39.2100746,7.86746269 C40.1902239,8.65962687 41.3846269,9.7161194 42.9402239,10.858806 C43.6683582,11.4014179 44.7897015,12.1180597 45.5917164,12.5629851 C46.8345522,13.1466418 48.0831343,13.7286567 49.5656716,13.9872388 C52.4667164,14.6160448 55.4843284,14.1473134 57.7458955,13.3576119 C60.0723134,12.5720149 61.7978358,11.5902239 63.391194,10.7504478 C64.9484328,9.90985075 66.3488806,9.13574627 67.4439552,8.66126866 C67.9791791,8.44455224 68.3715672,8.27380597 68.7352239,8.19335821 C69.0315672,8.12604478 69.2909701,8.09567164 69.6751493,8.07843284 C70.776791,8.0291791 72.4604478,8.87716418 73.2460448,9.87126866 C74.2754478,11.180597 74.9050746,12.8921642 75.1045522,15.2358209 C75.24,17.5802985 74.8188806,20.3220896 73.9692537,22.9990299 C73.5423881,24.341194 73.0342537,25.6817164 72.4103731,26.95 C71.8324627,28.1944776 71.0017164,29.5358209 70.4755224,30.320597 C70.3991791,30.493806 70.0026866,30.9518657 69.755597,31.2744776 L68.7828358,32.4040299 L67.783806,33.5007463 C66.7806716,34.3955224 65.7980597,35.3173881 64.6529104,36.0537313 C62.4126866,37.5748507 59.9155224,38.798806 57.2500746,39.6747015 C54.5649254,40.4857463 51.7492537,40.9372388 48.926194,41.1276866 C43.2891045,41.4199254 37.5477612,40.4233582 32.7537313,38.4187313 C27.7224627,36.3664925 23.3536567,33.2807463 19.6243284,29.9585821 C15.9163433,26.5953731 12.8552239,22.9711194 10.363806,19.5414179 C7.88880597,16.0985821 5.91044776,12.8773881 4.43365672,10.1273881 C2.97985075,7.40776119 1.82731343,5.1330597 1.1361194,3.60619403 C0.418656716,2.04977612 0.0385820896,1.21902985 0.0385820896,1.21902985 C0.279925373,2.17865672 0.537686567,3.1341791 0.811865672,4.08313433 C5.25208955,19.415 14.2622388,34.6442537 28.505597,42.6685075 C42.9426866,50.8035821 63.6333582,49.8817164 75.0224627,36.7703731 C81.6577612,29.1286567 86.4895522,13.411791 78.7008955,4.8769403 C76.5238806,2.49059701 73.3634328,1.03022388 70.1340299,0.91858209 C66.8258209,0.805298507 63.7942537,2.61291045 60.8004478,4.42216418 C56.7723134,6.85283582 52.808209,9.28432836 48.3244776,7.04492537 C44.7002239,5.23485075 42.1349254,2.15567164 38.0493284,0.901343284 C36.8311194,0.527014925 35.5341045,0.314402985 34.2510448,0.314402985 C32.4294776,0.314402985 30.6341791,0.741268657 29.1196269,1.73619403" id="path-1"></path>
        <linearGradient x1="46.2705465%" y1="45.1217753%" x2="58.7026784%" y2="61.2018881%" id="linearGradient-3">
            <stop stop-color="#4769A7" offset="0%"></stop>
            <stop stop-color="#435E97" offset="28.88%"></stop>
            <stop stop-color="#3B4674" offset="95.92%"></stop>
            <stop stop-color="#3B4674" offset="100%"></stop>
        </linearGradient>
        <path d="M68.9773881,0.402238806 L68.2804478,0.462164179 C67.8371642,0.522910448 67.3930597,0.595149254 66.9522388,0.679701493 C66.5114179,0.763432836 66.0730597,0.857835821 65.638806,0.962910448 C65.2283582,1.06798507 64.986194,1.17223881 64.6545522,1.27977612 C63.3608209,1.69925373 62.3108955,2.21395522 61.293806,2.72291045 C59.3006716,3.75313433 57.8296269,4.82440299 56.4751493,5.69537313 C55.1584328,6.56059701 53.9845522,7.29529851 53.1874627,7.66059701 C52.6514179,7.90604478 52.5118657,8.02097015 52.0127612,8.09649254 C51.5752239,8.16298507 51.1368657,8.12440299 50.8454478,8.00044776 C50.2059701,7.72955224 50.1936567,7.71313433 49.594403,7.37985075 C48.4993284,6.76828358 47.2326866,5.86776119 45.6475373,4.92701493 C44.0886567,3.99201493 42.1866418,3.01350746 40.1073134,2.43477612 L39.7206716,2.32477612 L39.309403,2.22298507 L38.6444776,2.08425373 C38.0345522,1.95701493 37.5543284,1.89052239 37.0314179,1.83059701 C36.0003731,1.71485075 34.9537313,1.69514925 33.9013433,1.77559701 C31.8031343,1.93402985 29.6376119,2.50865672 27.696194,3.63164179 C27.4540299,3.76791045 27.2151493,3.91238806 26.9844776,4.07328358 L26.6397015,4.3088806 L26.2152985,4.62492537 L25.4247761,5.30298507 C24.8115672,5.86365672 23.8806716,6.70507463 23.383209,7.39955224 C20.9484328,10.2546269 19.8673134,14.1276119 20.0651493,17.3110448 C20.2564179,20.5355224 21.285,23.1747015 22.4744776,25.3689552 C24.9273134,29.7336567 28.018806,32.5230597 30.6670149,34.5276866 C33.3242537,36.5454478 35.7458955,37.5756716 37.3802985,38.1601493 C38.2020149,38.4507463 38.8513433,38.6083582 39.2905224,38.6912687 C39.7247761,38.7791045 39.9497015,38.8242537 39.9497015,38.8242537 C29.4520896,35.1655224 16.1223881,16.8324627 29.1196269,8.30335821 C31.7021642,6.60820896 35.0973881,6.56141791 38.0501493,7.46850746 C42.1357463,8.72283582 44.7010448,11.8020149 48.3252985,13.6120896 C52.8090299,15.8523134 56.7731343,13.42 60.8012687,10.9893284 C63.7950746,9.18089552 66.8266418,7.37328358 70.1348507,7.48574627 C73.3642537,7.59820896 76.5238806,9.05776119 78.7017164,11.4441045 C86.4895522,19.9789552 81.6585821,35.6958209 75.0232836,43.3375373 C63.6341791,56.4488806 42.9435075,57.3707463 28.5064179,49.2356716 C14.2622388,41.2114179 5.25291045,25.9821642 0.812686567,10.6502985 C0.538507463,9.70134328 0.280746269,8.7458209 0.0394029851,7.78619403 C0.0394029851,7.78619403 0.128059701,8.69656716 0.295522388,10.4015672 C0.541791045,12.1180597 0.820074627,14.5930597 1.61470149,17.7674627 C3.08,24.0358209 5.99828358,33.1543284 13.1474627,42.4780597 C16.7528358,47.0537313 21.4729851,51.6802985 27.5492537,55.1674627 L28.5515672,55.7675373 C28.9283582,55.9727612 29.3897015,56.1935821 29.81,56.3955224 C30.6678358,56.7944776 31.5683582,57.2484328 32.426194,57.5948507 C34.1213433,58.2589552 35.8501493,58.9255224 37.6552985,59.4098507 C41.2467164,60.4359701 45.0515672,61.0869403 48.9820149,61.1780597 C56.7928358,61.4473134 65.3178358,59.7226119 72.7518657,54.9720896 C74.6292537,53.8359701 76.4015672,52.4831343 78.0376119,50.9751493 C78.4997761,50.5482836 79.3789552,49.6477612 79.8148507,49.193806 C80.1604478,48.8334328 80.8270149,48.0913433 81.1471642,47.7096269 C81.4648507,47.3328358 82.2676866,46.3420149 82.7134328,45.7452239 C84.2920149,43.623209 85.0226119,42.2194776 86.0241045,40.2271642 C87.0083582,38.2750746 87.8185821,36.2507463 88.5040299,34.1656716 C89.7879104,29.9733582 90.5226119,25.4773134 90.1778358,20.6471642 C89.8429104,15.8506716 87.9006716,10.5058209 84.1935075,6.4891791 C80.4953731,2.58089552 75.5576866,0.357910448 70.2653731,0.357910448 C69.8376866,0.358731343 69.4091791,0.373507463 68.9773881,0.402238806" id="path-4"></path>
        <linearGradient x1="-0.0347345998%" y1="49.9864508%" x2="99.696934%" y2="49.9864508%" id="linearGradient-6">
            <stop stop-color="#4769A7" offset="0%"></stop>
            <stop stop-color="#424E83" offset="95.92%"></stop>
            <stop stop-color="#424E83" offset="100%"></stop>
        </linearGradient>
    </defs>
    <g id="Symbols" stroke="none" stroke-width="1" fill="none" fill-rule="evenodd">
        <g id="Шапка" transform="translate(-889.000000, -24.000000)">
            <g id="Логотип">
                <g transform="translate(889.000000, 24.000000)">
                    <g id="Group" transform="translate(25.447761, 0.000000)">
                        <g id="Clipped" transform="translate(0.000000, 6.567164)">
                            <mask id="mask-2" fill="white">
                                <use xlink:href="#path-1"></use>
                            </mask>
                            <g id="SVGID_1_"></g>
                            <polygon id="Shape" fill="url(#linearGradient-3)" fill-rule="nonzero" mask="url(#mask-2)" points="53.8187313 -41.6021642 110.968657 31.7235075 32.7085821 92.7193284 -24.4429851 19.3944776"></polygon>
                        </g>
                        <g id="Clipped">
                            <mask id="mask-5" fill="white">
                                <use xlink:href="#path-4"></use>
                            </mask>
                            <g id="SVGID_4_"></g>
                            <rect id="Rectangle-path" fill="url(#linearGradient-6)" fill-rule="nonzero" mask="url(#mask-5)" x="0.0369402985" y="0.358731343" width="90.4840299" height="61.089403"></rect>
                        </g>
                    </g>
                    <g id="Group" transform="translate(0.000000, 65.671642)" fill-rule="nonzero">
                        <g transform="translate(74.701493, 0.000000)" fill="#F14942" id="Shape">
                            <path d="M0.412089552,12.7846269 C0.412089552,11.9522388 0.534402985,11.1699254 0.779029851,10.4360448 C1.02447761,9.70134328 1.39716418,9.06679104 1.89708955,8.53485075 C2.39865672,8.00291045 3.03813433,7.58261194 3.81470149,7.27477612 C4.59208955,6.96365672 5.51067164,6.81014925 6.57865672,6.81014925 C7.00470149,6.81014925 7.4988806,6.84380597 8.06447761,6.90619403 C8.62925373,6.97022388 9.16776119,7.0941791 9.67753731,7.27477612 C10.1889552,7.45455224 10.6256716,7.7 10.9893284,8.00783582 C11.3505224,8.31731343 11.5319403,8.70723881 11.5319403,9.17514925 C11.5319403,9.51664179 11.4145522,9.8261194 11.1797761,10.1019403 C10.9458209,10.379403 10.551791,10.5156716 9.99932836,10.5156716 C9.74238806,10.5156716 9.47477612,10.473806 9.19895522,10.3892537 C8.8369403,10.2193284 8.48477612,10.0699254 8.14574627,9.94350746 C7.80343284,9.81544776 7.36753731,9.75141791 6.83313433,9.75141791 C5.74873134,9.75141791 4.97955224,10.0157463 4.53298507,10.5501493 C4.08477612,11.0837313 3.86067164,11.8282836 3.86067164,12.7870896 L3.86067164,17.356194 C3.86067164,18.315 4.08477612,19.0652985 4.53298507,19.6087313 C4.97955224,20.1521642 5.74791045,20.4230597 6.83313433,20.4230597 C7.36671642,20.4230597 7.80343284,20.3606716 8.14574627,20.2326119 C8.48477612,20.1045522 8.8369403,19.9551493 9.19895522,19.7819403 C9.32619403,19.7417164 9.44358209,19.7064179 9.54947761,19.6727612 C9.65783582,19.6391045 9.79574627,19.6243284 9.96649254,19.6243284 C10.5197761,19.6243284 10.9187313,19.7671642 11.1633582,20.0552985 C11.408806,20.3426119 11.5319403,20.656194 11.5319403,20.9976866 C11.5319403,21.4672388 11.3505224,21.8538806 10.9893284,22.165 C10.6264925,22.4728358 10.1889552,22.7133582 9.67753731,22.8832836 C9.16776119,23.053209 8.62350746,23.1763433 8.0488806,23.2502239 C7.47261194,23.3241045 6.97104478,23.3626866 6.54664179,23.3626866 C5.4811194,23.3626866 4.56664179,23.2075373 3.79828358,22.8997015 C3.03156716,22.5902239 2.39947761,22.165 1.89791045,21.6199254 C1.39798507,21.0764925 1.02529851,20.4386567 0.779850746,19.705597 C0.535223881,18.9684328 0.412910448,18.1869403 0.412910448,17.3553731 L0.412910448,12.7846269 L0.412089552,12.7846269 Z"></path>
                            <path d="M16.9646269,23.3618657 C16.7085075,23.3618657 16.4310448,23.3232836 16.1330597,23.249403 C15.8358955,23.1738806 15.5625373,23.0154478 15.3179104,22.7683582 C15.0741045,22.5245522 14.8647761,22.1691045 14.693209,21.6987313 C14.5241045,21.2308209 14.4387313,20.6135075 14.4387313,19.846791 L14.4387313,1.59992537 C14.4387313,1.17634328 14.6029104,0.80119403 14.9345522,0.481044776 C15.2637313,0.163358209 15.6717164,0.00328358209 16.1626119,0.00328358209 C16.6543284,0.00328358209 17.0647761,0.158432836 17.3947761,0.466268657 C17.7231343,0.775746269 17.8889552,1.15253731 17.8889552,1.59992537 L17.8889552,19.6547015 C17.8889552,19.9945522 17.9102985,20.2572388 17.953806,20.4386567 C17.9956716,20.6184328 18.1245522,20.8252985 18.3363433,21.0608955 C18.4447015,21.166791 18.5407463,21.2792537 18.6244776,21.3958209 C18.7098507,21.513209 18.7525373,21.6888806 18.7525373,21.9236567 C18.7525373,22.3710448 18.5932836,22.7223881 18.2714925,22.9785075 C17.9546269,23.233806 17.5179104,23.3618657 16.9646269,23.3618657"></path>
                            <path d="M26.3893284,2.14335821 C26.368806,2.6769403 26.1660448,3.12597015 25.7843284,3.48716418 C25.4001493,3.84753731 24.930597,4.03059701 24.3756716,4.03059701 C23.8018657,4.03059701 23.3241045,3.84261194 22.9382836,3.46910448 C22.5557463,3.0988806 22.3644776,2.65477612 22.3644776,2.14335821 C22.3644776,1.61141791 22.5557463,1.16402985 22.9382836,0.80119403 C23.3241045,0.440820896 23.8018657,0.259402985 24.3756716,0.259402985 C24.930597,0.259402985 25.4026119,0.444104478 25.7966418,0.819253731 C26.1939552,1.1911194 26.3893284,1.63358209 26.3893284,2.14335821 Z M26.1020149,21.7315672 C26.1020149,22.2011194 25.936194,22.5844776 25.606194,22.8824627 C25.276194,23.1804478 24.8665672,23.3298507 24.3756716,23.3298507 C23.8872388,23.3298507 23.4759701,23.1804478 23.1451493,22.8824627 C22.8143284,22.5844776 22.6509701,22.2011194 22.6509701,21.7315672 L22.6509701,8.40597015 C22.6509701,7.98074627 22.8135075,7.60723881 23.1451493,7.28873134 C23.476791,6.97022388 23.8872388,6.80932836 24.3756716,6.80932836 C24.8665672,6.80932836 25.276194,6.96940299 25.606194,7.28873134 C25.9353731,7.6080597 26.1020149,7.98156716 26.1020149,8.40597015 L26.1020149,21.7315672 Z"></path>
                            <path d="M34.3782836,21.7315672 C34.3782836,22.1773134 34.2329851,22.5590299 33.9464925,22.8668657 C33.66,23.1747015 33.228209,23.3298507 32.6535821,23.3298507 C32.0781343,23.3298507 31.6455224,23.1747015 31.3598507,22.8668657 C31.0725373,22.5590299 30.9280597,22.1773134 30.9280597,21.7315672 L30.9280597,11.4752985 C30.9280597,11.1354478 30.918209,10.8629104 30.8960448,10.6609701 C30.8747015,10.4573881 30.8426866,10.2989552 30.8,10.1815672 C30.7581343,10.0641791 30.7088806,9.9730597 30.6571642,9.90902985 C30.603806,9.845 30.5553731,9.7711194 30.5126866,9.68656716 C30.383806,9.49447761 30.289403,9.33358209 30.2237313,9.20716418 C30.1580597,9.08074627 30.1301493,8.91985075 30.1301493,8.72776119 C30.1301493,8.30089552 30.2828358,7.95037313 30.5923134,7.67291045 C30.8993284,7.39544776 31.2999254,7.25753731 31.7908209,7.25753731 C32.3884328,7.25753731 32.8867164,7.56537313 33.2922388,8.18432836 C34.0154478,7.69507463 34.7550746,7.33798507 35.514403,7.11470149 C36.2671642,6.89059701 36.999403,6.77813433 37.7012687,6.77813433 C39.5540299,6.77813433 40.9446269,7.34373134 41.8714179,8.47164179 C42.7973881,9.60037313 43.2595522,11.0837313 43.2595522,12.9143284 L43.2595522,21.7323881 C43.2595522,22.1781343 43.1093284,22.5598507 42.8146269,22.8676866 C42.5158209,23.1755224 42.0897761,23.3306716 41.5356716,23.3306716 C40.9807463,23.3306716 40.5555224,23.1755224 40.2550746,22.8676866 C39.9579104,22.5598507 39.8101493,22.1781343 39.8101493,21.7323881 L39.8101493,12.9126866 C39.8101493,11.8898507 39.5893284,11.1009701 39.1550746,10.5476866 C38.7175373,9.99440299 38.0936567,9.71529851 37.2850746,9.71529851 C36.3681343,9.71529851 35.3674627,10.0469403 34.2814179,10.7061194 C34.3454478,11.0057463 34.3774627,11.2610448 34.3774627,11.4744776 L34.3774627,21.7315672 L34.3782836,21.7315672 Z"></path>
                            <path d="M51.4709701,2.14335821 C51.4520896,2.6769403 51.2485075,3.12597015 50.8659701,3.48716418 C50.4801493,3.84753731 50.0130597,4.03059701 49.460597,4.03059701 C48.8826866,4.03059701 48.4049254,3.84261194 48.0207463,3.46910448 C47.638209,3.0988806 47.4461194,2.65477612 47.4461194,2.14335821 C47.4461194,1.61141791 47.638209,1.16402985 48.0207463,0.80119403 C48.4049254,0.440820896 48.8826866,0.259402985 49.460597,0.259402985 C50.0130597,0.259402985 50.4858955,0.444104478 50.8799254,0.819253731 C51.2764179,1.1911194 51.4709701,1.63358209 51.4709701,2.14335821 Z M51.1861194,21.7315672 C51.1861194,22.2011194 51.0186567,22.5844776 50.6902985,22.8824627 C50.3594776,23.1804478 49.9498507,23.3298507 49.4614179,23.3298507 C48.9697015,23.3298507 48.5584328,23.1804478 48.2284328,22.8824627 C47.8976119,22.5844776 47.7350746,22.2011194 47.7350746,21.7315672 L47.7350746,8.40597015 C47.7350746,7.98074627 47.896791,7.60723881 48.2284328,7.28873134 C48.5584328,6.96940299 48.9697015,6.80932836 49.4614179,6.80932836 C49.9498507,6.80932836 50.3594776,6.96940299 50.6902985,7.28873134 C51.0186567,7.6080597 51.1861194,7.98156716 51.1861194,8.40597015 L51.1861194,21.7315672 Z"></path>
                            <path d="M54.8604478,12.7846269 C54.8604478,11.9522388 54.9819403,11.1699254 55.2265672,10.4360448 C55.4703731,9.70134328 55.8430597,9.06679104 56.3454478,8.53485075 C56.8453731,8.00291045 57.4856716,7.58261194 58.2614179,7.27477612 C59.0396269,6.96365672 59.9614925,6.81014925 61.0245522,6.81014925 C61.4522388,6.81014925 61.9464179,6.84380597 62.5103731,6.90619403 C63.0751493,6.97022388 63.6128358,7.0941791 64.1258955,7.27477612 C64.6348507,7.45455224 65.0723881,7.7 65.434403,8.00783582 C65.7972388,8.31731343 65.9786567,8.70723881 65.9786567,9.17514925 C65.9786567,9.51664179 65.8620896,9.8261194 65.6281343,10.1019403 C65.3917164,10.379403 64.9993284,10.5156716 64.4460448,10.5156716 C64.1899254,10.5156716 63.9223134,10.473806 63.6464925,10.3892537 C63.2844776,10.2193284 62.9323134,10.0699254 62.5916418,9.94350746 C62.2526119,9.81544776 61.8150746,9.75141791 61.2831343,9.75141791 C60.1962687,9.75141791 59.4270896,10.0157463 58.9797015,10.5501493 C58.5339552,11.0837313 58.3114925,11.8282836 58.3114925,12.7870896 L58.3114925,17.356194 C58.3114925,18.315 58.5339552,19.0652985 58.9797015,19.6087313 C59.4270896,20.1521642 60.1954478,20.4230597 61.2831343,20.4230597 C61.8142537,20.4230597 62.2526119,20.3606716 62.5916418,20.2326119 C62.9323134,20.1045522 63.2844776,19.9551493 63.6464925,19.7819403 C63.7720896,19.7417164 63.8902985,19.7064179 63.9970149,19.6727612 C64.1037313,19.6391045 64.2441045,19.6243284 64.4148507,19.6243284 C64.9664925,19.6243284 65.3662687,19.7671642 65.6125373,20.0552985 C65.8563433,20.3426119 65.9786567,20.656194 65.9786567,20.9976866 C65.9786567,21.4672388 65.7972388,21.8538806 65.434403,22.165 C65.073209,22.4728358 64.6348507,22.7133582 64.1258955,22.8832836 C63.6128358,23.053209 63.069403,23.1763433 62.4964179,23.2502239 C61.9201493,23.3241045 61.4185821,23.3626866 60.9941791,23.3626866 C59.9286567,23.3626866 59.0141791,23.2075373 58.2466418,22.8997015 C57.4799254,22.5902239 56.846194,22.165 56.3462687,21.6199254 C55.8438806,21.0764925 55.471194,20.4386567 55.2273881,19.705597 C54.9827612,18.9684328 54.8612687,18.1869403 54.8612687,17.3553731 L54.8612687,12.7846269 L54.8604478,12.7846269 Z"></path>
                        </g>
                        <g fill="#3C5D9F" id="Shape">
                            <path d="M0.705149254,11.5089552 C0.705149254,10.0576119 1.17798507,8.89850746 2.1261194,8.02507463 C3.07425373,7.15164179 4.48701493,6.71492537 6.36029851,6.71492537 C6.82738806,6.71492537 7.3338806,6.75186567 7.87813433,6.82574627 C8.42074627,6.90126866 8.92149254,7.02276119 9.38037313,7.19432836 C9.83925373,7.36589552 10.2152239,7.59820896 10.5156716,7.89619403 C10.8120149,8.1958209 10.9614179,8.5791791 10.9614179,9.04544776 C10.9614179,9.47313433 10.835,9.79738806 10.5788806,10.0214925 C10.3219403,10.2439552 9.98126866,10.3547761 9.55604478,10.3547761 C9.30074627,10.3547761 9.07089552,10.3194776 8.86895522,10.2439552 C8.66701493,10.1700746 8.44701493,10.088806 8.21470149,10.0034328 C7.97910448,9.91970149 7.7180597,9.84007463 7.43238806,9.76455224 C7.14261194,9.69067164 6.78716418,9.65208955 6.36029851,9.65208955 C6.16902985,9.65208955 5.94,9.66932836 5.67402985,9.70216418 C5.40723881,9.73253731 5.15604478,9.80149254 4.92208955,9.90902985 C4.68731343,10.0132836 4.4919403,10.1700746 4.33186567,10.3720149 C4.17179104,10.5739552 4.09134328,10.8464925 4.09134328,11.1863433 C4.09134328,11.7182836 4.27850746,12.1352985 4.65037313,12.4324627 C5.0230597,12.7320896 5.4819403,12.9923134 6.02455224,13.2147761 C6.56880597,13.4388806 7.16395522,13.6621642 7.81492537,13.8862687 C8.46343284,14.1103731 9.06104478,14.4026119 9.60283582,14.7646269 C10.1470896,15.1266418 10.6059701,15.6019403 10.9802985,16.1864179 C11.3505224,16.7733582 11.5393284,17.5441791 11.5393284,18.5013433 C11.5393284,19.9920896 11.046791,21.1725373 10.0674627,22.0336567 C9.08813433,22.8980597 7.63925373,23.3273881 5.7208209,23.3273881 C5.27425373,23.3273881 4.74641791,23.2953731 4.14059701,23.2329851 C3.53313433,23.1673134 2.96343284,23.0548507 2.43149254,22.8980597 C1.89873134,22.7379851 1.44477612,22.5245522 1.07291045,22.2569403 C0.700223881,21.9909701 0.513880597,21.646194 0.513880597,21.2193284 C0.513880597,21.0699254 0.540149254,20.8893284 0.591865672,20.6742537 C0.646044776,20.4624627 0.742910448,20.2703731 0.881641791,20.1004478 C1.01873134,19.9305224 1.20179104,19.7958955 1.42507463,19.7014925 C1.64753731,19.6070896 1.94059701,19.6021642 2.30261194,19.6850746 C2.60141791,19.7491045 3.05455224,19.8886567 3.66119403,20.1004478 C4.26701493,20.3155224 4.91141791,20.4197761 5.59440299,20.4197761 C6.31761194,20.4197761 6.92507463,20.2564179 7.41514925,19.925597 C7.90522388,19.5939552 8.14985075,19.1416418 8.14985075,18.566194 C8.14985075,18.0769403 7.96350746,17.6894776 7.5908209,17.4005224 C7.21895522,17.113209 6.76089552,16.8636567 6.21664179,16.6502239 C5.67485075,16.436791 5.07723881,16.2299254 4.42708955,16.0263433 C3.77776119,15.824403 3.18014925,15.5420149 2.63753731,15.18 C2.09492537,14.8196269 1.63604478,14.3508955 1.26335821,13.773806 C0.891492537,13.2 0.705149254,12.4447761 0.705149254,11.5089552"></path>
                            <path d="M32.5944776,12.3372388 C32.5944776,11.6140299 32.3917164,11.0016418 31.986194,10.5000746 C31.5823134,10.0001493 30.9847015,9.75141791 30.1974627,9.75141791 C29.6441791,9.75141791 29.1056716,9.87619403 28.584403,10.1347761 C28.0606716,10.3900746 27.5878358,10.7299254 27.161791,11.1543284 C27.2044776,11.3242537 27.2356716,11.5089552 27.2578358,11.699403 C27.2791791,11.8914925 27.2890299,12.0827612 27.2890299,12.2748507 L27.2890299,21.7315672 C27.2890299,22.180597 27.146194,22.5590299 26.8588806,22.8668657 C26.5715672,23.1747015 26.1397761,23.3298507 25.5651493,23.3298507 C24.9905224,23.3298507 24.5595522,23.1747015 24.2697761,22.8668657 C23.9832836,22.5590299 23.838806,22.180597 23.838806,21.7315672 L23.838806,12.9775373 C23.838806,12.5096269 23.8133582,12.0778358 23.7591791,11.683806 C23.7066418,11.2897761 23.5991045,10.9491045 23.4390299,10.6609701 C23.280597,10.3736567 23.0614179,10.1495522 22.7847761,9.98947761 C22.5064925,9.83104478 22.1346269,9.75223881 21.6667164,9.75223881 C21.111791,9.75223881 20.5593284,9.85156716 20.0060448,10.0551493 C19.4502985,10.2570896 18.9405224,10.5074627 18.4701493,10.8054478 C18.4923134,10.9113433 18.5087313,11.0254478 18.5202239,11.1403731 C18.5300746,11.2577612 18.5358209,11.369403 18.5358209,11.4752985 L18.5358209,21.7315672 C18.5358209,22.180597 18.3929851,22.5590299 18.1048507,22.8668657 C17.8167164,23.1747015 17.3865672,23.3298507 16.8119403,23.3298507 C16.2364925,23.3298507 15.8038806,23.1747015 15.518209,22.8668657 C15.2300746,22.5590299 15.085597,22.180597 15.085597,21.7315672 L15.085597,11.4752985 C15.085597,11.1354478 15.0749254,10.8645522 15.054403,10.6609701 C15.0338806,10.4590299 15.0010448,10.2989552 14.9583582,10.1815672 C14.9164925,10.0641791 14.8672388,9.97470149 14.8155224,9.91067164 C14.7621642,9.84664179 14.7137313,9.77276119 14.6718657,9.68656716 C14.5429851,9.49447761 14.4469403,9.33358209 14.3837313,9.20716418 C14.3197015,9.08074627 14.2868657,8.93134328 14.2868657,8.75977612 C14.2868657,8.31238806 14.4461194,7.95037313 14.7670896,7.67455224 C15.085597,7.39708955 15.4697761,7.25753731 15.9163433,7.25753731 C16.2364925,7.25753731 16.5172388,7.33798507 16.7635075,7.4980597 C17.0081343,7.65813433 17.2158209,7.865 17.3865672,8.1219403 C18.110597,7.67455224 18.8502239,7.32813433 19.6070896,7.08432836 C20.3623134,6.83723881 21.1257463,6.71574627 21.8908209,6.71574627 C22.6591791,6.71574627 23.3454478,6.84380597 23.9520896,7.09746269 C24.561194,7.35522388 25.1087313,7.72791045 25.5979851,8.21798507 C26.3655224,7.72708955 27.1207463,7.35522388 27.8669403,7.09746269 C28.6123134,6.84380597 29.4315672,6.71574627 30.3279851,6.71574627 C32.1372388,6.71574627 33.5426119,7.22716418 34.5457463,8.25 C35.5472388,9.27119403 36.0479851,10.6133582 36.0479851,12.2756716 L36.0479851,21.7323881 C36.0479851,22.1814179 35.9035075,22.5598507 35.616194,22.8676866 C35.3297015,23.1755224 34.8979104,23.3306716 34.3232836,23.3306716 C33.7470149,23.3306716 33.3152239,23.1755224 33.0279104,22.8676866 C32.7414179,22.5598507 32.5977612,22.1814179 32.5977612,21.7323881 L32.5977612,12.3372388 L32.5944776,12.3372388 Z"></path>
                            <path d="M44.5122388,2.14335821 C44.4933582,2.67858209 44.2889552,3.12597015 43.9072388,3.48716418 C43.5230597,3.8508209 43.0543284,4.03059701 42.5002239,4.03059701 C41.9247761,4.03059701 41.4453731,3.84425373 41.0628358,3.47074627 C40.6778358,3.0988806 40.4873881,2.65641791 40.4873881,2.14335821 C40.4873881,1.6130597 40.6778358,1.16402985 41.0628358,0.802835821 C41.4453731,0.442462687 41.9247761,0.261044776 42.5002239,0.261044776 C43.0543284,0.261044776 43.5279851,0.44738806 43.9220149,0.820895522 C44.3152239,1.1911194 44.5122388,1.63358209 44.5122388,2.14335821 Z M44.2257463,21.733209 C44.2257463,22.2011194 44.0615672,22.5844776 43.7299254,22.8824627 C43.3999254,23.1804478 42.9894776,23.3298507 42.5002239,23.3298507 C42.0109701,23.3298507 41.5988806,23.1804478 41.2705224,22.8824627 C40.9397015,22.5844776 40.7747015,22.2011194 40.7747015,21.733209 L40.7747015,8.40761194 C40.7747015,7.98238806 40.9388806,7.6088806 41.2705224,7.28873134 C41.5988806,6.96940299 42.0109701,6.81097015 42.5002239,6.81097015 C42.9894776,6.81097015 43.3999254,6.96940299 43.7299254,7.28873134 C44.0615672,7.60970149 44.2257463,7.98320896 44.2257463,8.40761194 L44.2257463,21.733209 Z"></path>
                            <path d="M62.8764925,16.8111194 C62.4282836,16.8111194 61.9702239,16.7963433 61.5023134,16.7626866 C61.034403,16.7323134 60.5435075,16.6748507 60.0320896,16.5878358 L60.0320896,18.0564179 C60.0320896,18.7829104 60.2767164,19.3567164 60.7676119,19.7835821 C61.2568657,20.2104478 62.0120896,20.4214179 63.0365672,20.4214179 C63.6333582,20.4214179 64.1652985,20.3491791 64.6315672,20.1989552 C65.1019403,20.051194 65.6026866,19.8574627 66.1362687,19.6235075 C66.1773134,19.5816418 66.2577612,19.5447015 66.3743284,19.5110448 C66.4908955,19.4806716 66.6460448,19.4642537 66.8381343,19.4642537 C67.3922388,19.4642537 67.7903731,19.6226866 68.035,19.9436567 C68.2804478,20.2629851 68.404403,20.5831343 68.404403,20.9024627 C68.404403,21.3933582 68.1950746,21.7923134 67.7805224,22.101791 C67.3643284,22.4096269 66.8627612,22.66 66.2782836,22.8504478 C65.6921642,23.0425373 65.0748507,23.1747015 64.4247015,23.2510448 C63.7753731,23.3249254 63.2147015,23.3618657 62.7476119,23.3618657 C61.7666418,23.3618657 60.8940299,23.2239552 60.1264925,22.9464925 C59.3597761,22.6690299 58.7153731,22.2873134 58.1941045,21.7972388 C57.671194,21.3063433 57.2730597,20.7259701 56.9964179,20.0544776 C56.7197761,19.3846269 56.5802239,18.6663433 56.5802239,17.8979851 L56.5802239,12.2428358 C56.5802239,11.455597 56.7197761,10.7225373 56.9964179,10.0543284 C57.2730597,9.38283582 57.6769403,8.80246269 58.2105224,8.31320896 C58.7424627,7.82231343 59.4032836,7.43320896 60.1921642,7.14589552 C60.979403,6.8569403 61.8856716,6.71492537 62.9085075,6.71492537 C64.8458209,6.71492537 66.2947015,7.20089552 67.2535075,8.16873134 C68.2131343,9.13738806 68.6925373,10.4212687 68.6925373,12.0195522 C68.6925373,13.5316418 68.2344776,14.7079851 67.3175373,15.5502239 C66.4022388,16.3924627 64.9205224,16.8111194 62.8764925,16.8111194 M65.2718657,11.9235075 C65.2718657,11.070597 65.0641791,10.4631343 64.6504478,10.1002985 C64.2350746,9.73992537 63.6333582,9.55686567 62.8452985,9.55686567 C61.9497015,9.55686567 61.2568657,9.78097015 60.7684328,10.2283582 C60.2767164,10.6773881 60.0329104,11.283209 60.0329104,12.0499254 L60.0329104,13.9355224 C60.586194,13.9995522 61.1370149,14.0479851 61.6779851,14.0783582 C62.2230597,14.1120149 62.6105224,14.1284328 62.8461194,14.1284328 C63.760597,14.1284328 64.3951493,13.9314179 64.7464925,13.5365672 C65.096194,13.1425373 65.2718657,12.6048507 65.2718657,11.9235075"></path>
                            <path d="M49.3908209,23.7435821 C49.0805224,23.7435821 48.7661194,23.6573881 48.4853731,23.4776119 C47.6956716,22.9793284 47.4625373,21.9335075 47.9641045,21.1446269 C51.5079104,15.556791 51.5079104,8.34029851 47.9641045,2.75492537 C47.4625373,1.96604478 47.6956716,0.922686567 48.4853731,0.420298507 C49.2750746,-0.0779850746 50.3176119,0.154328358 50.82,0.941567164 C55.0648507,7.62776119 55.0648507,16.2693284 50.82,22.9563433 C50.4990299,23.4644776 49.9506716,23.7435821 49.3908209,23.7435821"></path>
                        </g>
                        <g transform="translate(36.119403, 29.552239)" fill="#3C5D9F" id="Shape">
                            <path d="M2.27470149,11.1223134 L2.27470149,13.8673881 C2.27470149,14.1702985 2.0711194,14.4173881 1.70828358,14.4173881 C1.34544776,14.4173881 1.14268657,14.1702985 1.14268657,13.8673881 L1.14268657,5.9408209 C1.14268657,5.46141791 1.08440299,5.18559701 0.910373134,4.92455224 C0.852089552,4.83835821 0.809402985,4.76447761 0.809402985,4.63395522 C0.809402985,4.32940299 1.06962687,4.1258209 1.31671642,4.1258209 C1.54902985,4.1258209 1.73865672,4.2719403 1.88313433,4.4738806 C2.53574627,4.1258209 3.24746269,3.83604478 4.00186567,3.83604478 C5.52626866,3.83604478 6.31104478,4.95328358 6.31104478,6.57947761 L6.31104478,8.46671642 C6.31104478,10.1947015 5.72985075,11.3989552 3.8869403,11.3989552 C3.39276119,11.3981343 2.79679104,11.2971642 2.27470149,11.1223134 Z M2.27470149,10.1060448 C2.73850746,10.324403 3.37716418,10.410597 3.74,10.410597 C4.79977612,10.410597 5.17738806,9.81544776 5.17738806,8.46589552 L5.17738806,6.57865672 C5.17738806,5.44664179 4.72753731,4.85149254 3.76955224,4.85149254 C3.27537313,4.85149254 2.695,5.04029851 2.20164179,5.34402985 C2.24514925,5.56402985 2.27470149,5.76597015 2.27470149,5.9408209 L2.27470149,10.1060448 Z"></path>
                            <path d="M9.21373134,10.8481343 C9.21373134,11.1658209 8.96664179,11.4137313 8.64813433,11.4137313 C8.32798507,11.4137313 8.08171642,11.165 8.08171642,10.8481343 L8.08171642,5.94 C8.08171642,5.46059701 8.02425373,5.18477612 7.84940299,4.92373134 C7.7919403,4.83753731 7.74843284,4.76365672 7.74843284,4.63313433 C7.74843284,4.32858209 7.99552239,4.125 8.27134328,4.125 C8.50365672,4.125 8.70641791,4.28507463 8.85171642,4.51820896 C9.47641791,4.125 10.2891045,3.89268657 10.8407463,3.89268657 C11.4211194,3.89268657 11.5959701,4.13977612 11.5959701,4.44432836 C11.5959701,4.80798507 11.3349254,5.0411194 11.0303731,5.02634328 C10.434403,5.00992537 9.91231343,5.00992537 9.1858209,5.54761194 C9.20141791,5.69373134 9.21537313,5.82343284 9.21537313,5.9408209 L9.21537313,10.8481343 L9.21373134,10.8481343 Z"></path>
                            <path d="M12.4497015,8.82955224 L12.4497015,6.40544776 C12.4497015,4.95246269 13.3937313,3.82126866 15.1652239,3.82126866 C16.9367164,3.82126866 17.8799254,4.95328358 17.8799254,6.40544776 L17.8799254,8.82955224 C17.8799254,10.2808955 16.9367164,11.4137313 15.1652239,11.4137313 C13.3937313,11.4137313 12.4497015,10.2800746 12.4497015,8.82955224 Z M16.7462687,8.82955224 L16.7462687,6.38902985 C16.7462687,5.44664179 16.2102239,4.86626866 15.164403,4.86626866 C14.1185821,4.86626866 13.5817164,5.44664179 13.5817164,6.38902985 L13.5817164,8.82955224 C13.5817164,9.78671642 14.1185821,10.3670896 15.164403,10.3670896 C16.2102239,10.3670896 16.7462687,9.78671642 16.7462687,8.82955224 Z"></path>
                            <path d="M19.6062687,3.5019403 C19.6062687,1.65820896 20.6947761,0.829104478 22.1469403,0.771641791 C22.3792537,0.756865672 23.4677612,0.756865672 23.4677612,1.42589552 C23.4677612,1.7591791 23.2075373,1.96276119 22.9161194,1.96276119 C22.6690299,1.96276119 22.4367164,1.86014925 22.031194,1.86014925 C21.1741791,1.86014925 20.7391045,2.55791045 20.7391045,3.38455224 L20.7391045,4.28589552 L22.2487313,4.28589552 C22.5393284,4.28589552 22.7716418,4.51820896 22.7716418,4.8211194 C22.7716418,5.12731343 22.5393284,5.35962687 22.2487313,5.35962687 L20.7391045,5.35962687 L20.7391045,10.8169403 C20.7391045,11.1214925 20.5355224,11.3685821 20.1735075,11.3685821 C19.8106716,11.3685821 19.6070896,11.1214925 19.6070896,10.8169403 L19.6070896,3.5019403 L19.6062687,3.5019403 Z"></path>
                            <path d="M28.1271642,10.0050746 C28.1575373,9.99029851 28.2297761,9.96156716 28.3307463,9.96156716 C28.6213433,9.96156716 28.8380597,10.2086567 28.8380597,10.4680597 C28.8380597,11.1814179 27.2709701,11.4137313 26.4878358,11.4137313 C24.8468657,11.4137313 23.9036567,10.3670896 23.9036567,9.0019403 L23.9036567,6.28723881 C23.9036567,4.8941791 24.8329104,3.83440299 26.5600746,3.83440299 C28.1714925,3.83440299 28.9702239,4.76283582 28.9702239,6.20104478 C28.9702239,7.53664179 28.2445522,8.34932836 26.5173881,8.34932836 C26.0823134,8.34932836 25.543806,8.3041791 25.0364925,8.21798507 L25.0364925,9.0741791 C25.0364925,9.88850746 25.5733582,10.4097761 26.6183582,10.4097761 C27.2274627,10.410597 27.6198507,10.2373881 28.1271642,10.0050746 Z M26.5305224,4.86626866 C25.5864925,4.86626866 25.0356716,5.37440299 25.0356716,6.18544776 L25.0356716,7.29037313 C25.5725373,7.36261194 26.2694776,7.39134328 26.5592537,7.39134328 C27.6625373,7.39134328 27.8513433,6.79619403 27.8513433,6.20186567 C27.8521642,5.25865672 27.3727612,4.86626866 26.5305224,4.86626866 Z"></path>
                            <path d="M32.6560448,3.83522388 C33.4104478,3.83522388 34.586791,4.03880597 34.586791,4.64791045 C34.586791,4.92373134 34.3692537,5.1708209 34.0647015,5.1708209 C33.9620896,5.1708209 33.8898507,5.14208955 33.8036567,5.09858209 C33.4982836,4.95246269 33.2224627,4.83753731 32.7003731,4.83753731 C31.813806,4.83753731 31.4082836,5.18559701 31.4082836,5.85380597 C31.4082836,6.30283582 31.5962687,6.53514925 32.0904478,6.78223881 C33.0919403,7.27641791 34.791194,7.4061194 34.791194,9.29335821 C34.791194,10.6002239 33.9620896,11.4145522 32.3514925,11.4145522 C31.6102239,11.4145522 30.2163433,11.2397015 30.2163433,10.5714925 C30.2163433,10.324403 30.4051493,10.0485821 30.7540299,10.0485821 C30.8410448,10.0485821 30.855,10.0633582 30.8993284,10.0789552 C31.3048507,10.2373881 31.7702985,10.410597 32.3514925,10.410597 C33.1502239,10.410597 33.6870896,10.0929104 33.6870896,9.33768657 C33.6870896,8.81477612 33.4391791,8.59723881 33.1502239,8.43634328 C32.2357463,7.94216418 30.3041791,7.84119403 30.3041791,5.92358209 C30.3041791,4.67664179 31.1168657,3.83522388 32.6560448,3.83522388 Z"></path>
                            <path d="M38.4195522,3.83522388 C39.1739552,3.83522388 40.3502985,4.03880597 40.3502985,4.64791045 C40.3502985,4.92373134 40.1327612,5.1708209 39.828209,5.1708209 C39.7264179,5.1708209 39.6541791,5.14208955 39.5663433,5.09858209 C39.2609701,4.95246269 38.9851493,4.83753731 38.4630597,4.83753731 C37.5773134,4.83753731 37.171791,5.18559701 37.171791,5.85380597 C37.171791,6.30283582 37.3597761,6.53514925 37.8531343,6.78223881 C38.8562687,7.27641791 40.5530597,7.4061194 40.5530597,9.29335821 C40.5530597,10.6002239 39.7264179,11.4145522 38.1141791,11.4145522 C37.3745522,11.4145522 35.9798507,11.2397015 35.9798507,10.5714925 C35.9798507,10.324403 36.1686567,10.0485821 36.5167164,10.0485821 C36.6037313,10.0485821 36.6193284,10.0633582 36.6620149,10.0789552 C37.0683582,10.2373881 37.5329851,10.410597 38.1141791,10.410597 C38.9137313,10.410597 39.4497761,10.0929104 39.4497761,9.33768657 C39.4497761,8.81477612 39.2043284,8.59723881 38.9137313,8.43634328 C37.9984328,7.94216418 36.0685075,7.84119403 36.0685075,5.92358209 C36.0685075,4.67664179 36.881194,3.83522388 38.4195522,3.83522388 Z"></path>
                            <path d="M42.7308955,2.29604478 C42.3393284,2.29604478 42.0339552,1.97671642 42.0339552,1.59992537 C42.0339552,1.20671642 42.3393284,0.902164179 42.7308955,0.902164179 C43.1232836,0.902164179 43.4278358,1.20671642 43.4278358,1.59992537 C43.4270149,1.97671642 43.1224627,2.29604478 42.7308955,2.29604478 Z M42.7308955,11.4137313 C42.4099254,11.4137313 42.1636567,11.165 42.1636567,10.8481343 L42.1636567,4.44432836 C42.1636567,4.13977612 42.4107463,3.87873134 42.7308955,3.87873134 C43.0502239,3.87873134 43.2956716,4.13977612 43.2956716,4.44432836 L43.2956716,10.8481343 C43.2956716,11.1658209 43.049403,11.4137313 42.7308955,11.4137313 Z"></path>
                            <path d="M45.1689552,8.82955224 L45.1689552,6.40544776 C45.1689552,4.95246269 46.1113433,3.82126866 47.8836567,3.82126866 C49.6535075,3.82126866 50.5983582,4.95328358 50.5983582,6.40544776 L50.5983582,8.82955224 C50.5983582,10.2808955 49.6543284,11.4137313 47.8836567,11.4137313 C46.1121642,11.4137313 45.1689552,10.2800746 45.1689552,8.82955224 Z M49.4663433,8.82955224 L49.4663433,6.38902985 C49.4663433,5.44664179 48.9294776,4.86626866 47.8836567,4.86626866 C46.8378358,4.86626866 46.3001493,5.44664179 46.3001493,6.38902985 L46.3001493,8.82955224 C46.3001493,9.78671642 46.8378358,10.3670896 47.8836567,10.3670896 C48.9294776,10.3670896 49.4663433,9.78671642 49.4663433,8.82955224 Z"></path>
                            <path d="M53.5002239,10.8481343 C53.5002239,11.1510448 53.3114179,11.3981343 52.9354478,11.3981343 C52.5570149,11.3981343 52.368209,11.1510448 52.368209,10.8481343 L52.368209,5.91126866 C52.368209,5.11253731 52.2393284,5.11253731 52.108806,4.895 C52.0800746,4.83753731 52.0070149,4.75052239 52.0070149,4.60440299 C52.0070149,4.31380597 52.2393284,4.09626866 52.5447015,4.09626866 C52.8041045,4.09626866 52.9937313,4.2711194 53.1546269,4.51820896 C53.7916418,4.06753731 54.5312687,3.86559701 55.228209,3.86559701 C56.768209,3.86559701 57.5365672,4.96723881 57.5365672,6.60738806 L57.5365672,10.8481343 C57.5365672,11.1510448 57.333806,11.3981343 56.971791,11.3981343 C56.6097761,11.3981343 56.4053731,11.1510448 56.4053731,10.8481343 L56.4053731,6.60738806 C56.4053731,5.50410448 55.9423881,4.88022388 55.0697761,4.88022388 C54.505,4.88022388 53.9533582,5.11253731 53.4591791,5.48932836 C53.4879104,5.64776119 53.5018657,5.79552239 53.5018657,5.91126866 L53.5018657,10.8481343 L53.5002239,10.8481343 Z"></path>
                            <path d="M63.3140299,6.38902985 C63.3140299,5.33089552 62.8058955,4.83671642 61.7608955,4.83671642 C61.2519403,4.83671642 60.9761194,4.96641791 60.6576119,5.14126866 C60.6124627,5.15604478 60.4400746,5.25865672 60.2791791,5.25865672 C60.0033582,5.25865672 59.886791,4.99597015 59.8728358,4.77761194 C59.8153731,4.11022388 60.9030597,3.83522388 61.9053731,3.83522388 C63.7203731,3.83522388 64.4460448,4.85149254 64.4460448,6.76746269 L64.4460448,9.96156716 C64.4460448,10.2521642 64.5338806,10.3958209 64.7070896,10.3958209 C64.750597,10.3958209 64.7653731,10.3826866 64.8236567,10.3826866 C65.1002985,10.3826866 65.2447761,10.6281343 65.2447761,10.8768657 C65.2447761,11.2388806 64.9098507,11.369403 64.5913433,11.369403 C64.1127612,11.369403 63.7203731,11.0935821 63.5036567,10.6429104 C62.9503731,11.1510448 62.299403,11.4137313 61.5146269,11.4137313 C60.0197761,11.4137313 59.2932836,10.5271642 59.2932836,9.22029851 L59.2932836,9.16283582 C59.2932836,7.73940299 60.1338806,7.01455224 61.8470896,7.01455224 C62.37,7.01455224 62.8641791,7.08679104 63.3140299,7.21649254 L63.3140299,6.38902985 Z M60.4105224,9.17597015 L60.4105224,9.23507463 C60.4105224,9.9180597 60.7158955,10.3958209 61.6878358,10.3958209 C62.3125373,10.3958209 62.8058955,10.1938806 63.3140299,9.75798507 L63.3140299,8.19007463 C62.8346269,8.04559701 62.2690299,7.97171642 61.8331343,7.97171642 C60.6428358,7.97171642 60.4105224,8.525 60.4105224,9.17597015 Z"></path>
                            <path d="M66.7100746,1.33723881 C66.7100746,1.03268657 66.9563433,0.771641791 67.2748507,0.771641791 C67.5966418,0.771641791 67.8420896,1.02037313 67.8420896,1.33723881 L67.8420896,9.93283582 C67.8420896,10.2521642 67.8708209,10.4409701 68.0448507,10.6158209 C68.0891791,10.6732836 68.1474627,10.7742537 68.1474627,10.89 C68.1474627,11.1814179 67.9151493,11.4145522 67.6229104,11.4145522 C67.2608955,11.4145522 66.7092537,11.2397015 66.7092537,9.93283582 L66.7092537,1.33723881 L66.7100746,1.33723881 Z"></path>
                        </g>
                    </g>
                </g>
            </g>
        </g>
    </g>
</svg>