<?xml version="1.0" encoding="UTF-8"?>
<svg width="53px" height="73px" viewBox="0 0 53 73" version="1.1" xmlns="http://www.w3.org/2000/svg" xmlns:xlink="http://www.w3.org/1999/xlink">
    <!-- Generator: Sketch 49 (51002) - http://www.bohemiancoding.com/sketch -->
    <title>maps-and-flags (1)</title>
    <desc>Created with Sketch.</desc>
    <defs></defs>
    <g id="Desktop" stroke="none" stroke-width="1" fill="none" fill-rule="evenodd">
        <g id="Контакты" transform="translate(-924.000000, -865.000000)" fill="#3C5D9F" fill-rule="nonzero">
            <g id="Контент" transform="translate(384.000000, 474.000000)">
                <g id="Group-4" transform="translate(0.000000, 214.000000)">
                    <g id="Group-8" transform="translate(0.000000, -149.000000)">
                        <g id="maps-and-flags-(1)" transform="translate(540.000000, 326.000000)">
                            <path d="M26.3525046,0 C40.8832121,0 52.704725,11.859948 52.7050093,26.4377236 C52.7050093,44.5291988 29.1220992,71.0885417 28.1180359,72.2103478 C27.1766466,73.2622904 25.5300681,73.264144 24.5869734,72.2103478 C23.5829101,71.0885417 0,44.5291988 0,26.4377236 C0,11.859948 11.8216551,0 26.3525046,0 Z M26.5,12 C19.0441559,12 13,18.0441559 13,25.5 C13,32.9558441 19.0441559,39 26.5,39 C33.9558441,39 40,32.9558441 40,25.5 C40,18.0441559 33.9558441,12 26.5,12 Z" id="Combined-Shape"></path>
                        </g>
                    </g>
                </g>
            </g>
        </g>
    </g>
</svg>