<svg xmlns="http://www.w3.org/2000/svg" xmlns:xlink="http://www.w3.org/1999/xlink" width="237" height="160" viewBox="0 0 237 160"><defs><path id="uc61a" d="M1455.4 1747.06l-1.82.15a66.17 66.17 0 0 0-6.91 1.31c-1.08.28-1.7.55-2.58.83a60.94 60.94 0 0 0-8.79 3.77c-5.2 2.7-9.06 5.5-12.6 7.77-3.44 2.26-6.51 4.18-8.6 5.13-1.4.64-1.76.94-3.07 1.14a6 6 0 0 1-3.05-.25c-1.68-.7-1.7-.75-3.27-1.62-2.87-1.6-6.18-3.95-10.33-6.41-4.07-2.44-9.05-5-14.49-6.51l-1-.3-1.08-.26-1.74-.36a43.6 43.6 0 0 0-12.4-.8 38.23 38.23 0 0 0-16.24 4.84c-.63.36-1.25.74-1.86 1.16l-.9.61-1.11.83-2.07 1.77c-1.6 1.47-4.04 3.66-5.34 5.48a37.79 37.79 0 0 0-8.67 25.9c.5 8.42 3.19 15.32 6.3 21.05 6.41 11.4 14.5 18.7 21.42 23.93a64.47 64.47 0 0 0 17.56 9.5c2.15.75 3.85 1.16 5 1.38l1.72.35c-27.45-9.56-62.32-57.46-28.32-79.75 6.75-4.43 15.63-4.55 23.35-2.18 10.69 3.28 17.4 11.32 26.88 16.05 11.72 5.86 22.1-.5 32.63-6.85 7.83-4.73 15.75-9.45 24.4-9.16 8.45.3 16.72 4.11 22.41 10.35 20.37 22.3 7.74 63.36-9.62 83.33-29.79 34.26-83.9 36.67-121.66 15.41-37.25-20.96-60.81-60.76-72.43-100.82-.71-2.48-1.39-4.97-2.02-7.48l.67 6.83c.64 4.49 1.37 10.96 3.45 19.25 3.83 16.38 11.46 40.2 30.16 64.57 9.43 11.95 21.78 24.04 37.67 33.15l2.62 1.57c.99.54 2.2 1.11 3.3 1.64 2.24 1.04 4.59 2.23 6.83 3.13a129.9 129.9 0 0 0 13.68 4.75c9.4 2.68 19.34 4.38 29.62 4.62 20.43.7 42.73-3.8 62.17-16.22a86.79 86.79 0 0 0 13.83-10.44c1.2-1.12 3.5-3.47 4.64-4.66a104.42 104.42 0 0 0 7.58-9c4.13-5.55 6.04-9.22 8.66-14.43 2.58-5.1 4.7-10.39 6.49-15.83 3.36-10.96 5.28-22.7 4.38-35.33-.88-12.53-5.96-26.5-15.65-36.99-9.68-10.21-22.6-16.02-36.43-16.02-1.12 0-2.24.04-3.37.12"/></defs><g><g opacity=".08" transform="translate(-1275 -1746)"><use fill="#fff" xlink:href="#uc61a"/></g></g></svg>