<?xml version="1.0" encoding="UTF-8"?>
<svg width="237px" height="160px" viewBox="0 0 237 160" version="1.1" xmlns="http://www.w3.org/2000/svg" xmlns:xlink="http://www.w3.org/1999/xlink">
    <!-- Generator: Sketch 49 (51002) - http://www.bohemiancoding.com/sketch -->
    <title>Логотип</title>
    <desc>Created with Sketch.</desc>
    <defs>
        <path d="M76.1590241,4.53650698 C42.1662457,26.8222316 77.0285419,74.7247424 104.481688,84.2889432 C104.481688,84.2889432 102.339024,83.1499904 98.8351894,80.5267525 C95.3012974,77.9571377 90.6488404,73.5235869 85.7086912,67.3462157 C80.8436854,61.1752792 75.8133639,52.7693356 72.9579104,43.091454 C71.6611481,38.2761074 70.9462113,33.1497472 71.768496,28.6497039 C72.6594834,24.1603852 74.6024799,20.7156428 78.1041676,17.8864925 C79.4331343,16.8097424 80.863008,15.9045859 81.3246039,15.660065 C81.5285649,15.552819 83.23969,14.6476625 84.0233295,14.4353154 C85.5068772,14.0320703 87.1042135,13.9183895 89.2275545,14.1822147 C90.2881515,14.3151998 91.1684041,14.4910833 92.2955568,14.7935171 C92.840884,14.9479514 93.4441791,15.093806 93.9830654,15.2761242 C94.4854535,15.4455729 95.1102181,15.7480067 95.1102181,15.7480067 L95.8358898,16.0847593 C97.8797933,17.0456837 99.9408726,18.4527516 102.549426,20.5569186 C105.112893,22.626767 108.236716,25.3872797 112.305201,28.3730091 C114.209552,29.7908016 117.142296,31.6633173 119.239874,32.8258642 C122.490367,34.3509027 125.75589,35.8716514 129.633295,36.5473014 C137.220643,38.1903105 145.112859,36.9655609 151.027727,34.9021473 C157.112204,32.8494584 161.625109,30.2841334 165.792354,28.0898796 C169.865132,25.893481 173.527842,23.8708209 176.391883,22.6310568 C177.791699,22.0647978 178.817945,21.6186543 179.769047,21.4084521 C180.544099,21.2325686 181.222537,21.1532065 182.227313,21.1081632 C185.10853,20.979468 189.51194,23.1951709 191.566579,25.7926697 C194.258863,29.213818 195.90558,33.6859774 196.42729,39.8097256 C196.781538,45.9356187 195.680149,53.0996533 193.458048,60.0942393 C192.34163,63.6011844 191.012664,67.1038397 189.380976,70.4177419 C187.869518,73.6694415 185.696797,77.1742417 184.320597,79.2247857 C184.12093,79.677364 183.083949,80.8742297 182.437715,81.7171834 L179.893571,84.6685941 L177.280723,87.534208 C174.657141,89.8721714 172.087233,92.2809172 169.092227,94.2049109 C163.23318,98.1794487 156.702135,101.377525 149.730964,103.666156 C142.708266,105.785337 135.344202,106.965043 127.960815,107.462665 C113.217658,108.226257 98.201837,105.622323 85.6636051,100.384427 C72.5049024,95.0221257 61.0787945,86.9593693 51.3251665,78.2788758 C41.6273594,69.4911363 33.6213548,60.021312 27.1053387,51.0598339 C20.6322618,42.0640371 15.4580941,33.6473688 11.5957176,26.4618849 C7.7934558,19.3557631 4.77912744,13.4121883 2.97138921,9.42263601 C1.09494834,5.35586663 0.100907003,3.18520703 0.100907003,3.18520703 C0.732112514,5.69261916 1.40625718,8.18930669 2.12334099,10.6688349 C13.7362342,50.7295161 37.30124,90.5220823 74.5530999,111.488681 C112.311642,132.744844 166.425706,130.336098 196.212595,96.0774266 C213.566452,76.1103611 226.203444,35.0437121 205.833111,12.742973 C200.13938,6.50768897 191.873594,2.6918753 183.427463,2.4001661 C174.775224,2.10416707 166.84651,6.82728214 159.016556,11.554687 C148.481435,17.9057968 138.113777,24.2590515 126.387095,18.4077082 C116.908278,13.6781584 110.199036,5.63256139 99.513628,2.35512277 C96.3275431,1.377039 92.9353502,0.821504574 89.5796556,0.821504574 C84.8155568,0.821504574 80.1201607,1.93686326 76.1590241,4.53650698" id="path-1"></path>
        <path d="M180.4024,1.05101107 L178.579633,1.20759027 C177.420276,1.3663144 176.258772,1.5550674 175.105855,1.77599422 C173.952939,1.99477612 172.806464,2.24144198 171.670723,2.51599182 C170.597245,2.79054165 169.963892,3.06294656 169.096521,3.34393115 C165.712916,4.43998556 162.966958,5.78485075 160.306877,7.11470149 C155.094064,9.80657679 151.246716,12.6056981 147.704237,14.8814588 C144.260517,17.1422051 141.190367,19.061909 139.105672,20.0163987 C137.703708,20.6577299 137.338726,20.9580188 136.033375,21.1553515 C134.889047,21.32909 133.742572,21.2282788 132.980402,20.9043958 C131.307922,20.196572 131.275718,20.1536736 129.708439,19.2828358 C126.844397,17.68487 123.531642,15.3318922 119.385867,12.8738132 C115.308794,10.4307487 110.334294,7.87400337 104.896051,6.36183438 L103.884834,6.07441502 L102.809208,5.80844487 L101.070172,5.4459533 C99.4749828,5.11349061 98.2190126,4.93975205 96.8514007,4.78317285 C94.154822,4.48073905 91.4174512,4.42926095 88.6650517,4.63946317 C83.1774282,5.05343284 77.5137543,6.55487723 72.4361998,9.48912855 C71.8028473,9.84518536 71.1780827,10.2226914 70.5747876,10.6430958 L69.6730654,11.258688 L68.5630884,12.0844824 L66.4955683,13.8561868 C64.891791,15.3211675 62.4571412,17.5197111 61.156085,19.3343139 C54.788209,26.7943476 51.9606659,36.9140828 52.4780827,45.2320847 C52.9783238,53.6573327 55.6684615,60.5532523 58.779403,66.2866249 C65.1945121,77.6911675 73.2799541,84.9796076 80.206039,90.2175036 C87.1557405,95.4897183 93.4892652,98.1815936 97.7638576,99.7087771 C99.9129621,100.468079 101.611206,100.879904 102.759828,101.096541 C103.895568,101.326047 104.483835,101.444018 104.483835,101.444018 C77.0285419,91.8841069 42.1662457,43.9815961 76.1590241,21.6958714 C82.9133525,17.2666105 91.7931688,17.14435 99.515775,19.5144872 C110.201183,22.7919259 116.910425,30.8375229 126.389242,35.5670727 C138.115924,41.4205609 148.483582,35.0651613 159.018703,28.7140515 C166.848657,23.9887915 174.777371,19.2656765 183.42961,19.5595306 C191.875741,19.8533847 200.13938,23.6670534 205.835258,29.9023375 C226.203444,52.2030766 213.568599,93.2697256 196.214742,113.236791 C166.427853,147.495462 112.313789,149.904208 74.5552468,128.648045 C37.30124,107.681447 13.7383812,67.8888806 2.12548794,27.8281993 C1.40840413,25.3486712 0.734259472,22.8519836 0.103053961,20.3445715 C0.103053961,20.3445715 0.334925373,22.7232884 0.772904707,27.1782884 C1.41699196,31.6633173 2.14481056,38.1302528 4.22306544,46.4246606 C8.05538462,62.803274 15.6878186,86.6290515 34.3856716,110.991059 C43.8151091,122.946846 56.1601148,135.035619 72.0518944,144.147241 L74.6733295,145.715178 C75.658783,146.251408 76.8653731,146.828392 77.9646154,147.356042 C80.208186,148.398474 82.5633984,149.584615 84.806969,150.489771 C89.2404363,152.225012 93.7619288,153.966688 98.4830884,155.232191 C107.876028,157.913341 117.827176,159.614263 128.106808,159.85235 C148.535109,160.555883 170.831263,156.049405 190.27411,143.63675 C195.184202,140.66818 199.819483,137.133351 204.09837,133.193132 C205.307107,132.077773 207.606498,129.724795 208.746533,128.538654 C209.650402,127.597034 211.393731,125.658026 212.231045,124.660638 C213.061917,123.676119 215.161642,121.0872 216.32744,119.527843 C220.456039,113.983223 222.366831,110.315409 224.986119,105.109687 C227.560321,100.009066 229.679369,94.7196919 231.472078,89.2715936 C234.82992,78.3174844 236.751447,66.5697545 235.849724,53.9490419 C234.973766,41.4162711 229.894064,27.4506933 220.198404,16.955597 C210.526361,6.74363024 197.612411,0.935185364 183.770976,0.935185364 C182.652411,0.937330284 181.531699,0.975938854 180.4024,1.05101107" id="path-3"></path>
    </defs>
    <g id="Desktop" stroke="none" stroke-width="1" fill="none" fill-rule="evenodd" opacity="0.08">
        <g id="Попапы" transform="translate(-1032.000000, -726.000000)">
            <g id="Запись-на-прием" transform="translate(723.000000, 368.000000)">
                <g id="Логотип" transform="translate(309.000000, 358.000000)">
                    <g id="Group">
                        <g id="Clipped" transform="translate(0.000000, 17.159364)">
                            <mask id="mask-2" fill="white">
                                <use xlink:href="#path-1"></use>
                            </mask>
                            <g id="SVGID_1_"></g>
                            <polygon id="Shape" fill="#B4C6EB" fill-rule="nonzero" mask="url(#mask-2)" points="140.756682 -108.702429 290.225718 82.890455 85.5455224 242.266632 -63.9278071 50.6758931"></polygon>
                        </g>
                        <g id="Clipped">
                            <mask id="mask-4" fill="white">
                                <use xlink:href="#path-3"></use>
                            </mask>
                            <use id="SVGID_4_" fill="#FFFFFF" xlink:href="#path-3"></use>
                            <rect id="Rectangle-path" fill="#FFFFFF" fill-rule="nonzero" mask="url(#mask-4)" x="0.0966130884" y="0.937330284" width="236.65054" height="159.620698"></rect>
                        </g>
                    </g>
                </g>
            </g>
        </g>
    </g>
</svg>